<svg width="1200" height="700" viewBox="0 0 1200 700" fill="none" xmlns="http://www.w3.org/2000/svg">
  <rect width="1200" height="700" rx="28" fill="#EEF4FF"/>
  <circle cx="1020" cy="110" r="150" fill="#C7D9FF"/>
  <circle cx="180" cy="590" r="170" fill="#DDF7FF"/>
  <rect x="130" y="120" width="520" height="430" rx="24" fill="white"/>
  <rect x="170" y="170" width="230" height="22" rx="11" fill="#DBE7FF"/>
  <rect x="170" y="220" width="430" height="16" rx="8" fill="#E8EEF9"/>
  <rect x="170" y="250" width="380" height="16" rx="8" fill="#E8EEF9"/>
  <rect x="170" y="300" width="120" height="34" rx="10" fill="#2563EB"/>
  <rect x="305" y="300" width="120" height="34" rx="10" fill="#0F172A"/>
  <rect x="720" y="170" width="340" height="120" rx="20" fill="white"/>
  <circle cx="780" cy="230" r="34" fill="#E0EDFF"/>
  <path d="M765 230l12 12 20-20" stroke="#2563EB" stroke-width="8" stroke-linecap="round" stroke-linejoin="round"/>
  <rect x="830" y="205" width="190" height="16" rx="8" fill="#DDE8FF"/>
  <rect x="830" y="232" width="150" height="14" rx="7" fill="#E9EFFA"/>
  <rect x="720" y="320" width="340" height="190" rx="20" fill="white"/>
  <rect x="760" y="360" width="260" height="12" rx="6" fill="#E8EEF9"/>
  <rect x="760" y="386" width="200" height="12" rx="6" fill="#E8EEF9"/>
  <rect x="760" y="422" width="140" height="34" rx="10" fill="#16A34A"/>
</svg>